<svg height="512" viewBox="0 0 512 512" width="512" xmlns="http://www.w3.org/2000/svg" fill="#ffffff"><g id="Layer_2" data-name="Layer 2"><g id="cycling"><path id="background" d="m256 35a221.07 221.07 0 0 1 86 424.65 221.07 221.07 0 0 1 -172-407.3 219.64 219.64 0 0 1 86-17.35m0-35c-141.38 0-256 114.62-256 256s114.62 256 256 256 256-114.62 256-256-114.62-256-256-256z"/><path d="m334.75 253.68a57.25 57.25 0 1 0 57.25 57.25 57.25 57.25 0 0 0 -57.25-57.25zm0 95.34a38.09 38.09 0 1 1 38.09-38.09 38.13 38.13 0 0 1 -38.09 38.07z"/><path d="m177.25 253.68a57.25 57.25 0 1 0 57.25 57.25 57.25 57.25 0 0 0 -57.25-57.25zm0 95.34a38.09 38.09 0 1 1 38.09-38.09 38.12 38.12 0 0 1 -38.09 38.07z"/><path d="m320.17 233.08c11.61.11 12.1-15.31.44-15.89q-15.67 0-31.36.13a4.3 4.3 0 0 1 -4.25-2.32c-6.84-10.89-13.67-21.8-20.79-32.51-6.25-9.4-18.23-10.4-26.17-2.47q-20.51 20.52-41.04 41.09c-9 9-7.35 21.74 3.75 28 13.23 7.44 26.47 14.85 39.79 22.11 2.13 1.17 2.92 2.39 2.9 4.82-.12 14.08-.09 28.17-.07 42.26a11.37 11.37 0 0 0 12.5 11.42c6.44-.55 10.69-5.38 10.72-12.35q.09-28.56.07-57.11c.36-9.19-8.13-12.4-15-16.05-6.16-3.31-12.35-6.57-18-9.55l25.85-27.17 13.23 20.61c2 3.19 4.81 5 8.71 5 12.97-.01 25.84.03 38.72-.02z"/><path d="m280.26 184.2a20 20 0 0 0 20.25-20c.1-11.1-9-20.42-19.87-20.41a20.19 20.19 0 1 0 -.38 40.38z"/></g></g></svg>