<svg height="512" viewBox="0 0 512 512" width="512" xmlns="http://www.w3.org/2000/svg" fill="#ffffff"><g id="Layer_2" data-name="Layer 2"><g id="run"><path id="background" d="m256 35a221.07 221.07 0 0 1 86 424.65 221.07 221.07 0 0 1 -172-407.3 219.64 219.64 0 0 1 86-17.35m0-35c-141.38 0-256 114.62-256 256s114.62 256 256 256 256-114.62 256-256-114.62-256-256-256z"/><path d="m376.39 237.62c-.31-5.8-5.74-10.12-12.91-10.15-10.12 0-20.25-.08-30.37 0a4.83 4.83 0 0 1 -4.76-2.59c-7.15-11.58-14.5-23-21.63-34.63-4.61-7.52-11.19-11.24-19.94-11.24q-36.48 0-72.95 0a20.37 20.37 0 0 0 -17.08 8.63q-14.43 19.36-28.75 38.71a22.54 22.54 0 0 0 -2.91 4.74c-1.6 3.95-1.32 7.84 1.64 11.09s6.85 4.38 10.79 2.67a20.1 20.1 0 0 0 7.65-5.64c8.88-11.37 17.39-23 26.11-34.51.77-1 2-2.31 3.1-2.34 6.74-.21 13.49-.16 20.24-.06 2.22 0 2.7 1.54 2 3.43a14.55 14.55 0 0 1 -1.34 2.44c-6.18 10.39-12.44 20.75-18.54 31.19a32.51 32.51 0 0 0 -4.51 19.86c-15.7 24.6-41.43 63.34-56.45 87q-9.15 14.43-18.28 28.87c-2.28 3.62-2.75 7.37-.58 11.2a10.74 10.74 0 0 0 9.48 5.71c3.89-.13 6.78-2 9.13-5 22.14-28.52 54.41-71.19 77.75-101.37.64.35 1.29.69 1.92 1.05 11.77 6.57 23.56 13.09 36 20-1.73.86-2.73 1.4-3.76 1.87-12.07 5.5-24.15 10.95-36.2 16.49-6 2.77-8.5 8.36-6.34 14s7.79 8.29 14 6.36q28.47-8.86 56.9-17.86c8.1-2.57 12.95-8.24 14.1-16.56 1.11-8.08-2.06-14.57-8.82-19.21-5.47-3.75-11-7.45-16.45-11.18-7-4.76-14-9.53-20.91-14.25a7.21 7.21 0 0 1 .36-1.35c8.29-14.16 16.55-28.32 24.9-42.44 1.56-2.64 2.85-2.61 4.61 0q7.53 11.13 14.92 22.35c2.63 4 6.27 6.34 11 6.37 14.89.11 29.78.23 44.67-.07 7.23-.2 12.59-6.59 12.21-13.58z"/><path d="m300.66 170.91a25.46 25.46 0 1 0 -25.37-25.57 25.31 25.31 0 0 0 25.37 25.57z"/></g></g></svg>