<svg height="512" viewBox="0 0 512 512" width="512" xmlns="http://www.w3.org/2000/svg" fill="#ffffff"><g id="Layer_2" data-name="Layer 2"><g id="_05.swimming" data-name="05.swimming"><path id="background" d="m256 35a221.07 221.07 0 0 1 86 424.65 221.07 221.07 0 0 1 -172-407.3 219.64 219.64 0 0 1 86-17.35m0-35c-141.38 0-256 114.62-256 256s114.62 256 256 256 256-114.62 256-256-114.62-256-256-256z"/><path d="m322.31 337.92c-22 0-45.78-6.6-70.67-19.82-20.29-10.77-50-5.54-71.43.74a261.36 261.36 0 0 0 -43.47 17.25 11.39 11.39 0 1 1 -10.68-20.09 279.83 279.83 0 0 1 47.73-19c37-10.88 66.8-10.54 88.54 1 44 23.36 81.37 22.89 111.05-1.4a11.4 11.4 0 0 1 14.44 17.64c-19.31 15.76-41.39 23.68-65.51 23.68z"/><path d="m322.31 378.07c-22 0-45.78-6.6-70.67-19.82-20.29-10.77-50-5.54-71.43.74a261.36 261.36 0 0 0 -43.47 17.25 11.39 11.39 0 1 1 -10.68-20.13 279.83 279.83 0 0 1 47.73-19c37-10.88 66.8-10.54 88.54 1 44 23.36 81.37 22.89 111.05-1.4a11.4 11.4 0 0 1 14.44 17.64c-19.31 15.81-41.39 23.72-65.51 23.72z"/><path d="m244.42 218.55c-8.95-13.75-17.35-26.91-26-39.91-8.4-12.6-5-22.38 9.6-26.38q31.86-8.74 63.77-17.31c11.05-3 18.43.59 20.9 9.77 2.2 8.19-2.72 15.51-13 18.8-12.64 4-25.35 7.82-38 11.77-2.43.76-4.78 1.8-7.74 2.92 8.26 13.75 17.19 26.11 23.48 39.7a432.73 432.73 0 0 1 19.61 52c3.82 12.15-6.63 21.17-19.18 17.89-9.24-2.41-18.4-5.2-27.75-7.05-24.7-4.89-49.12-3.91-73 4.78-1.24.46-2.48.94-3.76 1.29-8.29 2.25-15.24-.32-18.48-6.8-3.41-6.83-1.54-14.79 6-19.34 14.31-8.61 28.86-16.9 43.75-24.45 12.53-6.37 25.67-11.47 39.8-17.68z"/><path d="m329.74 190.16a33.58 33.58 0 0 1 33.18 33.77c-.17 18-15.08 32.65-33.34 32.75a33.26 33.26 0 1 1 .16-66.52z"/></g></g></svg>