<?xml version="1.0" encoding="utf-8" ?><svg fill="hsl(var(--foreground))" xmlns="http://www.w3.org/2000/svg" xmlns:xlink="http://www.w3.org/1999/xlink" width="2500" height="612" viewBox="0 0 2500 612"><path transform="scale(1.22309 1.224)" d="M324.458 291.461C345.745 290.099 366.692 301.196 386.834 307.317C399.216 311.08 415.433 313.291 426.628 318.763C434.825 322.77 439.579 339.246 451.176 340.848C461.045 338.014 456.183 326.441 456.601 318.338C457.027 310.093 467.112 302.62 472.845 296.875C506.244 302.82 537.627 300.774 542.902 347.066C544.922 364.788 530.8 360.046 524.978 366.631L524.651 367.005C520.92 371.227 520.994 378.431 517.213 384.994C508.783 390.172 498.14 397.63 489.352 402.026C483.008 405.2 477.249 388.252 468.039 387.931C456.714 387.536 446.125 405.774 437.93 413.31C432.738 418.084 429.585 421.2 424.145 425.757C460.706 437.547 483.092 433.073 519.169 427.059C545.518 422.667 574.55 431.22 600.737 434.91C613.73 436.741 626.288 436.326 639.551 438.281C647.477 439.45 668.734 434.24 675.68 439.551L675.034 441.08C667.905 445.424 634.008 452.543 624.953 454.215C577.908 462.902 528.972 465.902 481.368 460.359C438.674 455.388 397.034 443.931 354.336 438.925C336.341 436.815 317.92 437.301 299.747 437.161C295.738 438.109 285.947 438.437 281.263 438.807C269.55 439.67 257.856 440.774 246.188 442.119C166.96 451.423 95.5611 464.174 16.8249 441.605C29.5756 440.456 44.5032 442.358 56.7912 440.205C110.161 430.853 155.9 414.932 211.159 422.972C228.251 412.342 240.895 398.551 258.24 389.034C269.723 382.734 288.476 381.673 298.297 377.803C319.659 369.385 354.149 351.994 373.397 339.488C360.349 332.697 347.575 325.822 335.585 317.275C311.573 332.436 295.804 328.489 271.543 341.639C269.527 350.287 264.703 372.492 255.253 375.773L253.901 373.976C253.386 368.315 255.973 361.564 257.893 356.249C248.275 358.931 228.488 371.571 223.179 370.787L222.98 368.909C225.149 364.092 230.659 359.306 234.535 355.481C230.114 357.263 217.972 363.778 214.719 361.509C215.349 359.039 220.106 354.708 222.36 351.319C220.03 348.673 218.254 351.998 213.909 350.025C217.879 337.802 249.019 331.622 260.148 325.706C282.42 313.867 300.047 298.758 324.458 291.461Z"/><path transform="scale(1.22309 1.224)" d="M311.347 453.542C316.466 452.951 335.073 454.283 340.936 454.648C391.04 457.774 438.448 470.707 487.894 477.392C509.649 480.333 534.077 477.796 556.518 479.748C552.548 481.082 539.304 483.166 534.317 484.205C484.734 494.541 436.925 486.793 387.3 480.35C350.373 475.032 313.002 473.47 275.759 475.689C233.118 478.058 182.279 486.346 141.22 478.406C146.51 478.179 153.002 477.287 158.296 476.4C210.082 467.73 258.523 455.73 311.347 453.542Z"/><path transform="scale(1.22309 1.224)" d="M1080.16 128.42C1088.31 126.97 1100.4 125.738 1101.01 115.696C1097.85 108.382 1092.56 104.608 1095.92 96.3763C1098.12 91.0078 1103.65 84.2123 1109.05 81.8932C1116.09 78.8668 1133.85 82.8272 1140.55 85.9199C1162.54 96.0624 1173.99 110.384 1164.56 133.831C1161.01 135.529 1156.14 137.683 1152.83 139.582C1154.4 155.321 1152.79 152.193 1140.63 161.135C1138.99 162.336 1134.31 168.65 1132.78 170.658L1121.29 162.3L1118.02 174.438C1115.53 172.123 1111.47 167.919 1108.51 166.799C1100.92 174.164 1113.05 216.783 1115.9 227.879C1127.23 236.253 1141.09 246.242 1151.04 255.948C1166.43 249.285 1176.18 247.791 1193.31 248.127C1206.18 228.828 1214.36 236.911 1209.75 257.121C1201.3 266.125 1201.01 270.157 1203.87 282.417C1205.44 289.154 1202.12 298.477 1195.47 299.391C1185.59 300.751 1167.88 312.184 1159.58 307.574L1158.65 305.724C1161.47 300.361 1167.97 302.365 1169.28 296.045C1166.73 290.019 1151.36 283.239 1145 280.091C1149.15 292.336 1155.82 310.595 1162.73 321.61C1190.98 314.029 1216.53 314.016 1242.63 329.053C1264.29 341.73 1280.04 362.474 1286.44 386.742C1298.86 433.276 1276.73 474.255 1238.32 500L1143.29 500C1106.24 476.093 1098.16 453.852 1094.49 412.21C1082.06 413.884 1063.91 420.997 1052.4 425.905C1056.05 455.403 1038.83 474.165 1009.03 466.198C1007.93 462.953 998.906 456.739 995.375 453.824C991.723 458.717 990.59 460.269 988.04 466C982.22 480.138 967.934 490.629 956.117 500L852.383 500C821.453 474.205 806.452 445.324 812.205 404.255C818.46 359.598 852.015 327.114 897.172 323.591C917.826 322.076 937.674 328.129 956.559 337.056C962.166 329.454 970.626 317.271 976.767 310.623C970.724 291.469 965.368 271.005 954.539 253.985C947.081 242.262 936.64 243.37 924.447 243.613C919.783 238.696 918.226 237.069 914.785 231.155C917.273 230.417 922.233 229.09 924.319 227.985C923.097 200.998 929.04 190.614 944.46 168.865C946.7 165.704 950.162 156.544 952.752 154.077C974.262 133.59 1006.88 121.786 1036.16 120.522C1053.25 119.784 1065.18 122.54 1080.16 128.42ZM1245.92 466.25L1247.98 464.199C1270.36 438.246 1273.64 414.949 1262.78 382.912L1261.4 379.696C1256.35 370.239 1253.64 366.847 1246.11 359.274L1242.71 355.644C1235.11 348.767 1230.06 346.851 1220.82 342.546L1217.45 341.353C1208.5 339.213 1201.92 338.502 1192.86 337.491L1187.85 337.818C1181.4 338.406 1174.56 338.359 1169.48 342.436C1168.02 346.713 1184.37 381.867 1187.09 390.254C1188.06 394.245 1190.17 400.44 1192.94 403.485L1193.73 404.653C1195.31 406.09 1196.72 407.56 1198.68 408.401C1198.82 412.09 1199.42 417.201 1197.79 420.342L1196.05 421.985L1192.54 422.53L1191.13 422.419L1189.33 421.986C1189.15 421.91 1188.97 421.831 1188.79 421.749C1183.4 419.234 1182.63 411.052 1180.31 404.702L1178.55 401.402C1177.29 397.368 1174.76 391.552 1172.49 388.072C1166.49 377.798 1158.4 359.892 1152.34 348.334C1148.17 352.433 1144.98 355.059 1140.45 358.696C1137.06 361.566 1136.26 362.358 1133.71 365.992C1130.48 371.032 1127.6 375.49 1124.05 380.328L1121.88 385.338C1117.43 396.041 1116.92 401.429 1115.6 412.991L1116.24 417.813C1117.19 425.993 1118.31 433.727 1120.97 441.574L1122.01 444.112C1125.23 451.111 1127.65 455.797 1132.52 461.855C1133.54 463.127 1138.69 468.895 1139.17 469.694L1140.35 470.145C1146.21 474.744 1156.03 481.869 1162.85 484.742C1173.59 488.619 1181.19 490.526 1192.86 489.921L1193.72 489.666C1201.41 491.069 1215.66 485.729 1223.85 483.425L1225.24 481.93C1233.73 477.897 1239.18 472.653 1245.92 466.25ZM1060.06 374.64C1068.51 365.779 1131.81 300.783 1132.63 293.881C1128.18 289.88 1123.22 291.441 1117.52 292.012C1105.89 292.837 1090.82 293.502 1079.55 295.407C1072.5 316.342 1043.87 358.212 1050.88 374.715C1053.8 377.336 1052.44 376.672 1056.5 377.219C1057.95 376.418 1059.04 375.951 1060.06 374.64ZM1091.79 262.58C1089.53 269.623 1087.15 276.63 1084.66 283.598C1093.43 282.633 1123.11 282.254 1124.46 272.307C1121.64 264.042 1105.08 255.5 1097.41 251.441C1093.76 243.487 1073.17 193.026 1068.19 191.555C1062.88 193.875 1057.2 196.495 1051.79 198.501C1044.14 196.786 1040.58 195.375 1033.26 192.397C1023.93 195.503 1019.28 197.302 1011.13 203.172C1029.64 213.129 1090.14 242.218 1091.79 262.58ZM846.631 463.654C847.726 464.308 849.4 465.176 850.195 466.089C851.579 471.788 863.034 478.831 867.998 482.332L871.987 484.372C879.769 487.412 887.832 490.881 896.044 492.263L897.736 492.183L897.943 492.243C913.887 496.677 934.838 487.026 948.207 479.438L949.628 477.771C952.78 475.682 961.109 469.435 962.218 465.998L961.353 464.399C957.837 462.57 951.498 463.045 947.32 463.048C948.67 461.975 951.02 461.272 952.709 460.664C963.589 461.723 963.275 464.013 967.785 454.567L970.806 454.15C972.735 452.198 976.306 440.788 977.463 437.452C962.008 434.092 949.5 432.709 933.945 431.326C927.672 430.823 921.766 427.969 915.057 429.101C914.454 429.969 913.732 431.008 912.891 432.218C913.354 438.921 907.961 451.992 908.579 457.197C907.91 458.186 906.515 460.128 906.089 461.11L901.982 461.541L896.069 460.877C893.4 450.163 900.338 450.465 898.822 443.746C896.578 441.079 897.689 441.85 893.879 440.979C892.82 440.521 891.115 439.281 890.084 438.582C887.537 431.538 894.27 431.307 887.888 421.675C887.219 416.588 891.541 410.666 894.223 406.139C895.621 405.383 898.609 404.585 900.245 404.089L906.355 404.223C910.251 403.429 916.442 393.552 918.392 390.159C924.348 379.695 943.164 359.656 943.185 353.327C940.336 348.751 932.32 348.097 927.331 346.956C909.274 342.825 894.561 343.917 877.003 349.298L874.331 350.904C866.344 354.514 863.444 356.988 856.507 362.376L854.679 364.48C849.016 370.237 845.136 376.359 840.639 383.008L838.792 387.04C830.609 409.501 827.954 445.584 846.631 463.654ZM1071.6 389.932L1083.61 395.653L1095.97 400.443C1103.26 364.071 1113.75 349.704 1144.36 328.6C1146.56 327.079 1141.88 318.85 1140.36 317.352C1129.77 326.056 1115.2 343.183 1105.72 353.851C1094.24 366.774 1083.77 377.635 1071.6 389.932ZM1055.06 272.221C1046.73 269.098 1040.93 266.802 1032 265.566C1035.59 273.721 1038.93 280.722 1043.81 288.221L1048.66 280.794L1055.06 272.221ZM1005.02 406.78C1005.05 399.146 1004.47 386.356 997.591 381.657C996.421 391.302 999.13 399.196 1005.02 406.78ZM1003.03 303.29C998.365 305.409 994.301 307.123 989.998 309.976C990.965 315.574 991.929 323.071 995.462 327.577C999.756 322.38 1007.59 314.004 1008.44 307.4C1007.58 304.458 1006.71 302.902 1003.03 303.29ZM1014.46 379.914L1016.05 380.623C1021.6 376.271 1034.73 339.986 1031.4 333.977C1024.14 343.533 1015.64 355.134 1009.88 365.615L1014.46 379.914ZM924.486 407.258C928.819 413.338 938.329 417.707 945.465 414.09C952.379 404.503 970.102 386.331 971.076 377.914C965.034 371.55 958.858 365.314 952.553 359.211C946.111 367.756 925.05 394.606 922.522 402.806C923.395 404.257 924.415 405.597 924.486 407.258ZM978.628 322.054C972.943 329.141 969.113 334.165 964.178 341.76L977.439 352.739C980.682 354.373 979.421 354.313 982.53 353.321C985.284 350.707 986.537 346.952 987.987 343.434C986.066 337.301 983.275 326.331 978.628 322.054Z"/><path fill="hsl(var(--foreground))" fill-opacity="0.66666669" transform="scale(1.22309 1.224)" d="M916.426 461.631C922.938 462.786 924.632 482.231 926.055 488.716L924.739 489.065C924.382 488.848 923.961 488.593 923.475 488.297C921.83 478.955 920.024 470.192 916.426 461.631Z"/><path fill="hsl(var(--foreground))" fill-opacity="0.5529412" transform="scale(1.22309 1.224)" d="M1261.4 379.696L1262.78 382.912C1258.73 383.351 1207.56 407.567 1203.67 410.583L1203.53 412.043L1206.6 412.819L1206.91 415.64C1210.49 420.9 1232.96 427.905 1239.33 430.148L1237.44 431.565C1229.55 428.576 1203.99 415.908 1198.92 424.622C1198.64 429.935 1220.62 470.577 1225.24 481.93L1223.85 483.425C1223.07 482.506 1194.78 426.107 1194.4 424.197L1196.05 421.985L1197.79 420.342C1199.42 417.201 1198.82 412.09 1198.68 408.401L1199.97 407.737C1220.38 400.049 1240.17 387.604 1261.4 379.696Z"/><path fill="hsl(var(--foreground))" fill-opacity="0.64705884" transform="scale(1.22309 1.224)" d="M1151.38 396.828C1160.27 400.7 1170.64 406.185 1180.31 404.702C1182.63 411.052 1183.4 419.234 1188.79 421.749C1188.97 421.831 1189.15 421.91 1189.33 421.986C1188.77 422.81 1187.21 425.003 1186.91 425.775L1185.34 425.621L1184.09 424.869C1182.17 426.284 1180.87 427.316 1179.11 428.919C1179.38 425.85 1181.22 427.395 1180.52 423.469L1180.15 421.637C1174.46 421.037 1130.99 441.071 1122.01 444.112L1120.97 441.574C1142.02 433.786 1162.69 425.027 1182.93 415.327C1166.98 414.28 1152.36 415.036 1136.46 415.567C1129.85 415.787 1123.46 414.864 1116.86 415.792L1116.24 417.813L1115.6 412.991C1117.65 411.875 1119.02 411.939 1121.27 412.115C1141.08 413.666 1159.24 412.564 1179 410.893C1169.81 406.017 1160.19 401.979 1150.28 398.827L1151.38 396.828Z"/><path fill="hsl(var(--foreground))" fill-opacity="0.59607846" transform="scale(1.22309 1.224)" d="M880.347 402.95C884.782 404.106 889.324 405.488 893.897 405.588L894.223 406.139C891.541 410.666 887.219 416.588 887.888 421.675C894.27 431.307 887.537 431.538 890.084 438.582C891.115 439.281 892.82 440.521 893.879 440.979C893.345 442.145 891.35 446.697 890.771 447.486L888.497 446.225C888.954 442.62 889.24 443.858 887.786 440.904C885.319 439.73 882.916 440.74 880.247 441.457C878.492 440.73 877.709 439.818 876.344 438.514C877.342 436.454 875.978 420.836 874.79 418.514L873.87 419.615C871.338 419.558 867.616 417.891 865.129 416.943C867.395 415.95 871.68 415.607 874.302 415.284L879.856 411.861L880.724 411.99L884.18 406.11C882.557 404.976 881.792 404.309 880.347 402.95Z"/><path fill="hsl(var(--foreground))" fill-opacity="0.56470591" transform="scale(1.22309 1.224)" d="M874.331 350.904L877.003 349.298C885.863 364.284 891.333 379.233 896.411 395.803C897.383 398.975 898.407 401.32 900.245 404.089C898.609 404.585 895.621 405.383 894.223 406.139L893.897 405.588C893.965 404.638 893.622 403.237 892.919 402.529C880.254 389.785 866.107 378.417 854.679 364.48L856.507 362.376C861.162 368.541 889.704 395.138 895.595 399.469C889.964 385.06 882.252 363.763 874.331 350.904Z"/><path fill="hsl(var(--foreground))" fill-opacity="0.43921569" transform="scale(1.22309 1.224)" d="M1242.71 355.644L1246.11 359.274C1238.5 366.137 1203.91 400.184 1199.97 407.737L1198.68 408.401C1196.72 407.56 1195.31 406.09 1193.73 404.653L1195.19 403.026L1196.85 403.342L1197.12 403.112C1208.61 397.047 1233.86 366.12 1242.71 355.644Z"/><path fill="hsl(var(--foreground))" fill-opacity="0.38039216" transform="scale(1.22309 1.224)" d="M1217.45 341.353L1220.82 342.546C1214.69 357.472 1208.1 379.093 1201.93 392.475L1199.4 388.902C1205.79 373.797 1209.97 358.181 1217.45 341.353Z"/><path fill="hsl(var(--foreground))" fill-opacity="0.69803923" transform="scale(1.22309 1.224)" d="M1187.85 337.818L1192.86 337.491C1192.77 344.612 1193.54 401.341 1192.94 403.485C1190.17 400.44 1188.06 394.245 1187.09 390.254C1188.1 390.205 1188.54 389.66 1189.36 388.989C1191.39 379.9 1189.86 349.464 1189.22 338.975L1187.85 337.818Z"/><path fill="hsl(var(--foreground))" fill-opacity="0.49411765" transform="scale(1.22309 1.224)" d="M1245.92 466.25C1240.94 461.199 1206.94 430.892 1206.22 427.799C1212.76 429.212 1243.09 457.419 1247.98 464.199L1245.92 466.25Z"/><path fill="hsl(var(--foreground))" fill-opacity="0.48627451" transform="scale(1.22309 1.224)" d="M1133.71 365.992C1136.26 362.358 1137.06 361.566 1140.45 358.696C1141.68 363.986 1167.09 388.278 1171.16 388.632L1172.49 388.072C1174.76 391.552 1177.29 397.368 1178.55 401.402C1171.94 396.066 1146.87 368.387 1136.52 365.106C1136.52 365.106 1133.98 365.907 1133.71 365.992Z"/><path fill="hsl(var(--foreground))" fill-opacity="0.50588238" transform="scale(1.22309 1.224)" d="M1139.17 469.694C1138.22 463.683 1174.32 427.908 1180.52 423.469C1181.22 427.395 1179.38 425.85 1179.11 428.919C1171.08 437.64 1144.97 461.6 1140.35 470.145L1139.17 469.694Z"/><path fill="hsl(var(--foreground))" fill-opacity="0.49019608" transform="scale(1.22309 1.224)" d="M922.522 402.806C930.494 401.488 958.481 379.249 971.076 377.914C958.687 388.397 938.966 396.222 924.486 407.258C924.415 405.597 923.395 404.257 922.522 402.806Z"/><path fill="hsl(var(--foreground))" fill-opacity="0.50980395" transform="scale(1.22309 1.224)" d="M838.792 387.04L840.639 383.008C853.068 391.154 866.391 397.846 880.347 402.95C881.792 404.309 882.557 404.976 884.18 406.11L880.724 411.99L879.856 411.861L880.828 408.042C879.9 406.185 843.059 389.096 838.792 387.04Z"/><path fill="hsl(var(--foreground))" fill-opacity="0.75686276" transform="scale(1.22309 1.224)" d="M906.355 404.223C909.195 398.149 901.175 348.103 903.175 345.393C907.075 350.236 905.969 386.127 909.623 396.876L910.716 397.085L911.752 394.33C912.791 393.334 914.808 390.274 915.733 388.953L918.392 390.159C916.442 393.552 910.251 403.429 906.355 404.223Z"/><path fill="hsl(var(--foreground))" fill-opacity="0.93333334" transform="scale(1.22309 1.224)" d="M908.579 457.197L912.113 457.533C913.511 456.297 914.789 455.206 916.249 454.045L917.914 454.492C918.39 455.517 919.569 458.579 920.313 458.865C923.765 460.191 931.997 459.641 935.509 458.934L937.832 459.276C942.807 459.548 947.77 460.011 952.709 460.664C951.02 461.272 948.67 461.975 947.32 463.048L944.433 463.32L938.379 463.193C926.817 462.075 917.735 461.27 906.089 461.11C906.515 460.128 907.91 458.186 908.579 457.197Z"/><path fill="hsl(var(--foreground))" fill-opacity="0.49411765" transform="scale(1.22309 1.224)" d="M915.057 429.101C921.766 427.969 927.672 430.823 933.945 431.326C932.326 436.614 930.471 437.876 925.814 440.933C925.298 440.942 923.664 440.924 923.277 441.044C921.714 440.109 916.442 431.245 915.057 429.101Z"/><path fill="hsl(var(--foreground))" fill-opacity="0.5529412" transform="scale(1.22309 1.224)" d="M931.649 345.975C929.095 363.062 922.211 372.583 915.733 388.953C914.808 390.274 912.791 393.334 911.752 394.33C914.478 380.582 925.093 358.94 931.649 345.975Z"/><path fill="hsl(var(--foreground))" fill-opacity="0.54509807" transform="scale(1.22309 1.224)" d="M875.544 438.332L876.344 438.514C877.709 439.818 878.492 440.73 880.247 441.457C869.607 448.878 859.56 457.113 850.195 466.089C849.4 465.176 847.726 464.308 846.631 463.654C854.018 457.986 871.272 445.821 875.544 438.332Z"/><path fill="hsl(var(--foreground))" fill-opacity="0.80000001" transform="scale(1.22309 1.224)" d="M1206.6 412.819C1214.72 411.084 1262.8 406.544 1267.92 409.458C1252.59 412.216 1219.6 410.21 1206.91 415.64L1206.6 412.819Z"/><path fill="hsl(var(--foreground))" fill-opacity="0.89411765" transform="scale(1.22309 1.224)" d="M1191.13 422.419L1192.54 422.53C1192.86 443.406 1195.32 468.694 1194.96 488.822L1193.72 489.666L1192.86 489.921C1193.59 477.028 1191.38 457.724 1191.63 444.185C1191.69 441.179 1191.46 424.286 1191.13 422.419Z"/><path fill="hsl(var(--foreground))" fill-opacity="0.6156863" transform="scale(1.22309 1.224)" d="M873.021 430.825C857.517 433.293 850.814 441.716 838.008 442.625L837.631 441.855C847.156 436.305 866.905 431.688 872.854 424.865L873.068 424.616L873.021 430.825Z"/><path fill="hsl(var(--foreground))" fill-opacity="0.48627451" transform="scale(1.22309 1.224)" d="M1121.88 385.338L1124.05 380.328C1126.71 386.139 1145.69 393.114 1151.38 396.828L1150.28 398.827C1143.33 396.339 1128.08 389.254 1121.88 385.338Z"/><path fill="hsl(var(--foreground))" fill-opacity="0.64313728" transform="scale(1.22309 1.224)" d="M1162.85 484.742C1163.62 479.483 1173.31 457.709 1176.03 451.734L1178.24 452.677C1175.48 459.874 1168.55 481.339 1162.85 484.742Z"/><path fill="hsl(var(--foreground))" fill-opacity="0.6156863" transform="scale(1.22309 1.224)" d="M896.069 460.877L901.982 461.541C899.165 473.262 899.167 480.502 897.736 492.183L896.044 492.263L894.659 491.55C893.505 489.467 896.215 488.035 896.757 484.562C897.949 476.921 896.862 468.444 896.069 460.877Z"/><path fill="hsl(var(--foreground))" fill-opacity="0.41568628" transform="scale(1.22309 1.224)" d="M923.277 441.044C923.664 440.924 925.298 440.942 925.814 440.933C927.823 444.237 937.272 457.399 937.832 459.276L935.509 458.934C931.61 454.744 929.634 451.271 923.994 449.804C921.991 449.283 924.418 446.013 923.277 441.044Z"/><path fill="hsl(var(--foreground))" fill-opacity="0.51764709" transform="scale(1.22309 1.224)" d="M1239.33 430.148C1243.85 431.499 1259.9 435.527 1261.98 438.43L1262.23 439.968C1258.3 441.151 1242.7 433.484 1237.44 431.565L1239.33 430.148Z"/><path fill="hsl(var(--foreground))" fill-opacity="0.80000001" transform="scale(1.22309 1.224)" d="M865.129 416.943C862.194 417.058 835.353 413.927 833.577 412.577C837.447 411.84 864.975 415.436 874.302 415.284C871.68 415.607 867.395 415.95 865.129 416.943Z"/><path fill="hsl(var(--foreground))" fill-opacity="0.74117649" transform="scale(1.22309 1.224)" d="M1185.34 425.621L1186.91 425.775C1184.72 435.046 1179.85 445.517 1178.24 452.677L1176.03 451.734C1179.05 443 1182.15 434.295 1185.34 425.621Z"/><path fill="hsl(var(--foreground))" fill-opacity="0.50980395" transform="scale(1.22309 1.224)" d="M938.379 463.193L944.433 463.32L943.632 464.82L949.628 477.771L948.207 479.438C945.885 477.15 940.113 466.443 938.379 463.193Z"/><path fill="hsl(var(--foreground))" fill-opacity="0.82352942" transform="scale(1.22309 1.224)" d="M888.497 446.225L890.771 447.486C887.24 454.012 880.066 466.716 877.529 473.155L874.821 472.79C880.323 464.809 884.803 455.151 888.497 446.225Z"/><path fill="hsl(var(--foreground))" fill-opacity="0.93333334" transform="scale(1.22309 1.224)" d="M873.87 419.615L874.79 418.514C875.978 420.836 877.342 436.454 876.344 438.514L875.544 438.332C874.715 436.704 873.613 432.739 873.021 430.825L873.068 424.616L873.87 419.615Z"/><path fill="hsl(var(--foreground))" fill-opacity="0.58823532" transform="scale(1.22309 1.224)" d="M874.821 472.79L877.529 473.155L871.987 484.372L867.998 482.332C869.278 480.074 873.129 475.1 874.821 472.79Z"/><path fill="hsl(var(--foreground))" fill-opacity="0.75294119" transform="scale(1.22309 1.224)" d="M1195.19 403.026C1196.78 398.179 1198.22 393.891 1199.4 388.902L1201.93 392.475L1197.12 403.112L1196.85 403.342L1195.19 403.026Z"/><path transform="scale(1.22309 1.224)" d="M1784.55 96.4181C1804.23 66.466 1857.65 84.7816 1840.24 122.299C1841.5 125.485 1842.83 128.578 1843.69 131.895C1827.76 144.256 1837.62 158.948 1814.21 150.289C1811.55 151.758 1809.24 152.61 1808.21 155.442C1806.85 164.843 1816.35 170.367 1812.83 188.845C1818.43 201.706 1819.12 205.809 1820.81 219.859C1836.47 213.398 1851.12 207.988 1862.32 194.473C1861.77 179.807 1859.91 174.486 1876.99 174.42C1880.34 174.407 1882.59 174.386 1885.37 176.47C1887.86 179.498 1889.68 186.729 1890.94 190.745C1883.48 199.673 1878.14 201.691 1867.33 209.994C1855.77 218.878 1827.49 260.817 1808.83 247.637C1804.01 244.237 1795.19 224.256 1791.33 217.755C1770.19 247.306 1758.21 252.495 1748.74 288.006C1757.15 295.974 1767.31 298.227 1775.12 304.783C1791.15 318.239 1812.45 338.546 1820.72 357.733C1822.31 361.419 1810.88 383.346 1809.15 387.793C1805.48 397.261 1802.54 407.773 1798.21 417.014C1794.04 426.405 1770.72 458.875 1776.31 468.84C1780.91 469.063 1779.25 465.977 1782.26 468.056C1782.83 472.987 1782.57 474.103 1787.18 477.686C1792.02 481.445 1798.23 485.241 1803.53 488.359C1809.89 487.937 1815.98 487.094 1821.6 490.482C1823.27 493.27 1822.96 492.056 1822.65 495.49C1821.68 496.903 1820.49 498.76 1819.37 500L1745.94 500C1728.28 493.301 1745.74 472.625 1751.12 462.571C1760.62 445.298 1762.23 424.711 1764.95 405.485C1767.06 390.6 1775.76 382.173 1782.1 369.129C1763.11 350.514 1771.62 361.014 1748.49 353.308C1744.21 351.885 1729.9 342.815 1725.2 339.896C1718.81 350.535 1710.01 365.938 1701.31 374.536C1687.69 387.996 1676.93 403.828 1663.87 417.372C1652.59 421.003 1645.68 418.994 1635.98 421.737C1626.61 424.389 1614.11 430.647 1604.51 434.163C1584.44 441.508 1562.45 445.58 1544.77 457.895C1543.87 461.375 1542.29 469.017 1540.34 471.565L1538.14 469.971C1530.92 472.377 1527.74 483.832 1525.63 490.455C1524.72 493.342 1525.97 497.141 1526.77 500L1509.09 500C1500.92 480.143 1502.7 473.005 1503.48 452.289C1504.4 428.045 1512.28 428.318 1534.87 436.107C1550.73 429.632 1560.21 424.278 1574.51 414.697C1582.49 409.347 1593.28 401.903 1601.77 397.855C1612.4 393.162 1625.72 395.642 1635.83 389.744C1640.77 386.866 1645.88 379.325 1647.59 373.927C1654.67 351.682 1661.73 335.513 1674.84 315.746C1667.55 299.24 1667.33 294.805 1671.94 276.849C1666.94 275.5 1667.2 276.372 1664.13 273.084C1661.1 263.37 1667.49 251.935 1674.27 245.182C1673.28 228.859 1667.16 180.65 1677.01 166.212C1681.91 159.029 1709.98 154.64 1718.84 151.796C1734.45 146.951 1749.29 139.578 1765.67 141.451C1794.34 125.502 1782.71 124.19 1784.55 96.4181ZM1698.01 183.763C1695.87 194.674 1686.81 240.112 1690.06 248.174L1691.66 248.817C1692.66 247.922 1693.86 246.983 1694.57 245.871C1707.62 227.778 1711.12 210.698 1717.7 189.736C1718.51 187.163 1719.38 183.776 1718.77 181.142C1715.63 180.246 1714.48 180.508 1711.32 180.92C1707.27 181.714 1701.86 182.616 1698.01 183.763Z"/><path fill="hsl(var(--foreground))" fill-opacity="0.81568629" transform="scale(1.22309 1.224)" d="M995.375 453.824C998.906 456.739 1007.93 462.953 1009.03 466.198L988.04 466C990.59 460.269 991.723 458.717 995.375 453.824Z"/></svg>
