<?xml version="1.0" encoding="utf-8" ?><svg xmlns="http://www.w3.org/2000/svg" xmlns:xlink="http://www.w3.org/1999/xlink" width="2044" height="500" viewBox="0 0 2044 500"><path d="M314.364 249.601C337.872 248.917 357.94 259.699 380.037 266.292C390.72 270.236 409.265 272.317 419.039 277.155C426.805 280.999 444.647 316.132 451.399 292.778C451.943 290.9 451.055 279.777 451.029 276.95C450.948 268.021 461.147 260.744 466.997 255.076C478.821 257.859 489.861 257.84 503.679 261.299C527.981 267.383 540.564 290.107 538.296 314.099C537.714 320.253 528.301 322.866 523.761 325.178C517.185 328.528 515.029 340.511 513.102 347.307C502.425 349.449 501.868 352.016 493.102 358.81C476.011 372.055 475.879 351.148 463.578 349.308C451.248 347.463 439.052 367.632 430.787 375.373C425.196 380.609 422.443 383.328 416.134 388.214C435.728 392.579 456.318 397.142 476.45 394.787C495.886 392.514 513.047 388.265 532.83 388.392C560.116 388.48 586.688 396.43 613.755 398.806C624.714 399.768 636.015 400.334 647.019 400.435C655.621 400.514 664.71 398.588 673.26 399.566C675.328 401.361 674.921 400.524 675.412 402.981C670.462 407.456 641.379 413.393 633.149 415.078C571.908 427.8 508.85 429.16 447.117 419.091C390.638 409.553 343.116 395.493 285.195 399.553C277.356 399.101 233.208 404.471 224.108 405.749C166.693 413.81 54.3958 426.38 0 403.768C12.4822 402.762 27.6788 404.817 39.5674 402.536C94.819 391.936 141.396 377.991 198.041 384.867C214.758 373.752 229.578 358.945 247.224 349.803C264.527 341.788 282.042 342.02 299.547 333.55C321.728 322.818 343.79 312.253 364.663 298.979C351.362 292.134 338.453 284.554 325.994 276.275C301.959 289.918 282.839 288.62 259.627 301.554C258.242 310.794 253.12 332.351 243.765 336.06L242.375 335.071C241.277 328.292 243.657 322.781 245.894 316.445C237.539 318.722 214.109 332.372 209.879 330.774C210.399 325.539 219.48 318.221 223.444 314.512C216.571 317.258 210.057 321.387 203.038 322.512L201.782 321.56C202.776 318.27 206.979 315.485 209.45 311.235C207.462 308.64 204.237 311.86 200.707 309.776C204.135 297.623 240.157 289.592 251.085 283.493C273.063 271.228 290.006 256.95 314.364 249.601Z"/><path d="M298.092 416.602C353.377 413.762 426.528 434.037 481.977 440.788C507.99 443.954 527.982 440.95 552.542 442.778C548.903 444.197 533.441 447.318 529.339 448.1C480.544 457.402 432.794 451.087 384.138 444.417C349.55 440.248 323.823 437.003 288.965 437.704C235.05 438.789 178.356 451.583 125.656 442.037C185.417 433.614 237.792 420.623 298.092 416.602Z"/><path d="M1069.52 57.4188C1106.58 52.3228 1080.25 38.3255 1084.1 26.0768C1091.37 6.96052 1111.74 7.45707 1127.14 14.1704C1150.62 24.4023 1163.54 37.5457 1153.5 62.9764C1149.65 64.6558 1145.62 66.6474 1141.8 68.4474C1143.5 84.4807 1141.79 81.0052 1129.23 90.4561C1128.02 91.3688 1123.14 97.9295 1121.86 99.6165L1110.28 91.3761L1107.03 103.51C1104.37 100.996 1100.75 97.1312 1097.5 95.8552L1095.88 97.5401C1092.05 109.418 1101.62 144.104 1105.05 157.27C1118.48 166.496 1127.98 173.953 1140.03 184.938C1155.08 177.877 1165.92 177.253 1182.32 177.001C1185.65 172.111 1188.01 167.759 1194 166.41C1204.1 168.529 1200.08 180.253 1198.28 187.207C1186.73 197.344 1191.62 202.568 1194.59 216.222C1190.87 224.113 1186.24 228.156 1177.85 230.574C1170.98 232.553 1150.93 243.285 1147.61 234.197C1149.74 229.695 1157.36 231.657 1157.52 224.689C1154.36 218.48 1140.59 212.448 1133.97 209.028C1138.08 222.046 1144.93 239.027 1151.73 250.507C1170.09 245.254 1187.94 243.778 1206.61 248.176C1230.79 253.876 1251.67 269.065 1264.54 290.322C1277.86 311.919 1282.04 337.931 1276.15 362.613C1268.22 395.545 1250.05 414.949 1222.18 431.995C1244.12 429.999 1266.86 431.996 1288.71 431.569C1358.57 430.201 1428.95 431.06 1498.93 431.038C1490.3 412.962 1491.45 402.183 1492.37 383.103C1493.65 356.606 1499.14 357.524 1523.85 365.11C1550.43 355.103 1568.83 337.511 1593.89 325.716C1598.12 323.728 1610.77 323.203 1616.47 321.91C1638.69 316.864 1638.65 292.025 1646.42 274.939C1651.02 264.834 1657.85 254.201 1663.83 244.691C1656.13 227.89 1656.72 223.363 1660.96 205.932L1655.26 204.32C1647.39 196.064 1656.65 180.707 1663.3 174.205C1662.12 152.837 1659.98 133.984 1660.95 112.159C1662.21 83.6931 1686.55 88.2236 1707.77 80.8213C1723.8 75.2267 1737.03 69.278 1754.49 70.5674C1782.85 55.1537 1772 53.3906 1773.55 25.3277C1792.53 -3.68033 1846.66 12.8911 1829.2 51.199C1830.48 53.7111 1831.69 57.8994 1832.59 60.7048C1817.37 73.1787 1826.29 88.0572 1803.27 79.2525C1800.45 80.7248 1799.5 81.5607 1797.12 83.5549C1794.52 91.8353 1803.31 99.1184 1802.81 102.501C1800.39 118.946 1808.14 132.728 1809.9 148.814C1827.72 141.688 1838.48 137.637 1851.31 123.357C1851.13 120.118 1851.05 116.874 1851.07 113.629C1851.26 101.31 1862.27 103.238 1872.24 103.572C1875.84 105.552 1878.52 115.163 1879.93 119.385C1872.9 129.213 1865.61 131.228 1855.76 139.458C1842.69 150.387 1821.64 182.786 1801.43 178.705C1794.32 177.269 1784.16 153.797 1780.39 146.765C1758.24 178.435 1748.9 178.232 1737.54 217.317C1745.05 223.542 1755.65 227.863 1762.79 233.231C1780.2 246.305 1801 268.004 1810.62 287.269C1809.24 294.98 1803.18 304.989 1799.77 312.718C1794.86 323.896 1792 335.94 1787.11 347.115C1781.21 360.58 1760.71 382.385 1765.39 397.57L1766.71 398.111L1769.65 396.244C1772.43 397.523 1770.95 401.787 1773.5 404.213C1778.55 409.02 1786.06 413.454 1791.99 417.253C1799.93 416.788 1803.1 416.025 1810.21 419.742C1812.36 422.569 1812.01 421.291 1811.56 424.844C1809.49 428.179 1807.56 429.061 1804.21 431.096C1883.28 430.09 1964.7 431.072 2044 431.06L2044 500L0 500L0 478.896C56.2812 486.233 96.437 473.649 151.709 471.463C192.297 469.858 238.92 483.3 279.993 482.975C333.412 482.552 387.191 468.004 440.527 467.396C460.497 467.169 486.064 470.889 505.878 473.565C548.127 479.27 586.883 485.658 629.697 481.225C646.753 479.283 665.401 478.254 682.099 474.281C716.821 466.018 749.261 452.839 784.652 446.772C800.134 444.118 815.323 441.89 830.675 438.839C836.212 437.738 844.889 437.295 849.799 435.314C846.012 430.56 841.158 428.882 836.481 425.121C800.541 396.22 790.516 347.654 809.11 305.978C818.586 284.349 836.318 267.409 858.357 258.931C890.21 246.788 915.568 252.585 945.634 266.058L965.626 239.181C959.924 221.011 952.393 192.514 939.798 178.451C933.521 171.442 922.17 172.552 913.471 172.669C908.699 167.688 907.333 165.975 903.675 160.123C906.872 159.346 910.026 158.151 913.134 157.054C912.74 132.89 916.907 120.089 931.627 100.734C934.851 96.4947 937.562 87.7372 940.239 84.633C948.615 74.9207 963.227 67.243 974.653 61.5884C1008.06 47.6432 1036 44.8263 1069.52 57.4188ZM1652.46 346.711C1642.54 349.763 1634.15 348.405 1626.11 350.487C1616.83 352.89 1603.63 359.395 1594.16 362.926C1574.86 370.122 1550.48 375.079 1533.65 386.918C1532.48 392.472 1532.75 395.092 1528.28 398.707C1520.45 405.04 1516.73 411.386 1513.6 420.959C1514.45 423.597 1515.94 428.754 1516.93 431.116C1582.15 431.129 1650.94 432.295 1715.85 430.969C1726.21 431.398 1736.51 431.2 1746.88 431.087C1749.23 431.191 1762.17 431.581 1763.52 430.389C1753.66 428.906 1747.85 429.098 1738.01 429.29L1734.16 428.991C1719.5 419.792 1731.82 405.526 1738.61 394.229C1752.07 371.867 1750.04 347.63 1756.72 323.584C1758.31 318.086 1768.09 305.257 1771.07 298.105C1760.18 287.411 1756.7 283.311 1740.87 284.584C1731.85 279.602 1722.94 274.423 1714.15 269.051C1701.58 289.585 1691.42 303.952 1674.42 321.065C1666.85 328.689 1660.73 338.779 1652.46 346.711ZM1000.16 395.473C997.905 393.216 987.497 385.324 984.287 382.69C980.645 387.602 979.578 389.689 976.935 395.051C971.249 410.134 953.049 422.73 940.39 432.372L1137.42 432.051C1097.21 408.33 1087.1 385.317 1083.44 340.909C1067.25 344.709 1056.84 348.619 1041.58 354.626C1041.83 358.61 1042.17 363.152 1041.88 367.127C1040.41 387.032 1020.45 404.957 1000.16 395.473ZM1050.64 302.109C1060.35 291.874 1119.38 230.75 1122.04 223.11C1119.08 219.16 1110.79 220.482 1106.13 221.058C1093.84 221.956 1080.97 222.697 1068.76 224.1C1066.37 230.976 1064.05 236.158 1061.08 242.634C1055.9 253.931 1028.73 295.731 1042.56 305.918C1046.59 306.424 1047.95 305.065 1050.64 302.109ZM1234.95 395.334L1236.94 393.191C1252.4 375.565 1255.71 363.921 1258.6 340.432C1258.62 338.594 1258.36 336.39 1258.19 334.529C1256.84 326.549 1254.32 319.582 1251.77 311.945L1250.36 308.528C1245.07 298.983 1242.77 296.047 1235.2 288.344L1231.64 284.646C1223.3 277.274 1220.09 275.89 1209.93 271.693L1206.31 270.206C1196.97 268.168 1189.33 266.889 1179.77 266.777L1178.7 266.641C1171.72 267.29 1163.85 267.161 1158.47 271.567C1157.15 275.911 1173.43 311.114 1176.15 319.408C1176.99 323.105 1179.21 329.667 1181.96 332.23L1182.72 333.84C1184.15 334.966 1186.25 336.722 1187.77 337.569C1187.91 341.192 1188.48 345.83 1186.9 348.954C1185.61 349.951 1184.46 350.927 1182.99 351.636L1181.87 351.648L1180.67 351.631L1178.13 351.172C1171.52 347.752 1172.84 340.885 1169.08 333.723L1168.23 331.28C1166.3 326.658 1164.27 321.234 1161.51 317.125C1155.84 307.554 1147.05 288.256 1141.42 277.373C1137.26 281.355 1134.99 283.352 1130.32 286.836C1126.27 290.443 1124.82 291.681 1121.82 296.145C1118.84 301.291 1116.41 304.771 1112.97 309.577L1110.74 314.357C1102.86 335.297 1103.82 349.405 1109.98 370.963L1111.08 372.045C1114.39 382.606 1120.19 390.44 1128.06 398.054L1129.11 399.308C1135.78 403.884 1144.47 410.179 1151.43 413.86L1152.78 414.201C1177.3 422.361 1188.01 419.946 1212.05 412.543L1214.55 411.006C1221.94 407.328 1228.95 400.87 1234.95 395.334ZM1022.31 121.425C1013.01 124.555 1008.16 126.392 1000.06 132.258C1018.83 142.09 1078.2 170.342 1080.8 191.774C1078.49 198.816 1076.07 205.821 1073.53 212.784C1083.08 211.618 1106.2 210.133 1112.61 204.451C1116.33 195.121 1093.77 184.118 1086.69 180.763C1081.59 170.85 1062.74 122.918 1057.08 120.646C1051.37 123.248 1046.61 125.443 1040.67 127.519C1033.76 125.914 1028.85 124.329 1022.31 121.425ZM835.741 392.782C836.619 393.298 838.414 394.25 839.049 394.901C840.766 400.943 851.702 407.55 857.061 411.348L861.016 413.476C866.087 415.367 878.014 420.13 882.751 420.958C905.367 423.928 917.717 419.37 937.193 408.515L938.795 406.972C942.449 403.944 951.41 398.177 950.867 393.521C948.052 391.577 943.618 392.049 940.061 392.072L939.749 390.808L943.611 389.781C947.114 390.111 948.692 390.195 952.205 389.955C960.473 385.561 963.629 374.675 966.566 366.352C950.838 363.186 939.2 361.705 923.423 360.384C917.378 359.567 909.745 356.998 904.018 358.163C903.426 359.007 902.716 360.019 901.888 361.2C902.348 367.992 896.919 380.932 897.597 386.318C894.236 389.642 895.313 388.722 890.48 390.06L889.615 390.458L885.093 389.855C882.308 379.211 889.349 379.703 887.78 372.548C885.547 370.037 886.615 370.772 882.835 369.987C874.771 366.059 880.119 363.417 879.622 356.413C879.553 355.443 877.413 350.617 876.817 349.217C876.486 344.422 881.533 337.955 884.346 334.223L889.022 333.168L896.833 332.788C899.983 329.865 905.337 323.632 906.798 319.61C914.335 307.543 925.115 294.3 934.195 283.395C923.084 276.045 907.997 273.695 894.953 273.109L892.437 273.252C878.586 273.533 876.389 276.393 865.834 278.057L863.525 279.96C855.798 283.135 851.904 286.195 845.407 291.53L843.719 293.406C838.544 298.787 833.57 305.746 829.725 312.149L827.787 316.101C819.303 339.231 817.066 373.857 835.741 392.782ZM1073.63 325.042L1084.96 329.495C1092.08 293.179 1102.55 279.465 1132.6 258.013C1135.45 255.983 1131.59 248.051 1129.01 246.51C1117.28 256.794 1104.67 271.713 1094.09 283.576C1083.4 295.748 1072.22 307.472 1060.56 318.717C1064.79 320.841 1069.29 323.212 1073.63 325.042ZM1687.05 112.676C1684.91 123.448 1675.76 169.474 1679.13 177.233L1680.74 177.787C1681.5 177.047 1683.05 175.626 1683.63 174.861C1696.62 156.723 1700.12 139.725 1706.77 118.549C1707.55 116.058 1708.28 112.833 1707.73 110.276C1704.68 109.141 1702.5 109.639 1699.31 110.022L1687.05 112.676ZM911.392 331.968C912.043 332.988 913.358 334.925 913.763 335.938C916.087 342.943 928.058 345.798 934.81 342.929C937.592 339.466 940.32 335.347 942.984 331.679C948.857 323.594 958.669 316.974 960.109 306.808C954.772 301.64 946.428 292.297 941.492 288.218C934.941 296.963 914.206 323.526 911.392 331.968ZM986.536 310.776C985.519 319.954 988.142 328.633 994.019 335.763C994.01 328.308 993.499 315.17 986.536 310.776ZM1020.56 194.23C1024.62 202.644 1027.76 209.226 1032.78 217.189L1037.61 209.879L1044.39 201.02C1035.44 197.976 1029.77 196.123 1020.56 194.23ZM993.542 231.654C988.655 233.88 983.622 235.993 979.171 238.989C980.163 245.201 980.942 250.663 983.982 256.333C988.463 251.64 1004.11 236.767 993.542 231.654ZM953.335 270.747L966.505 281.661L969.136 283.042C974.266 281.188 975.061 277.005 977.046 272.185C975.297 267.029 971.48 253.975 967.64 251.058C961.947 258.19 958.162 263.057 953.335 270.747ZM1020.29 263.095C1013.78 271.878 1003.78 285.234 998.854 294.749L1003.23 308.156L1004.89 309.161C1010.67 306.229 1023.57 268.496 1020.29 263.095Z"/><path fill="#6D6C69" fill-opacity="0.65882355" d="M905.36 390.434C911.871 391.484 913.957 412.61 915.244 418.88C915.132 418.862 914.287 418.705 914.34 418.678C914.118 418.792 912.529 417.424 912.524 417.398C910.73 407.98 909.13 399.08 905.36 390.434Z"/><path fill="#767571" fill-opacity="0.59607846" d="M869.401 331.999C873.583 333.096 879.797 335.251 883.757 333.68L884.346 334.223C881.533 337.955 876.486 344.422 876.817 349.217C877.413 350.617 879.553 355.443 879.622 356.413C880.119 363.417 874.771 366.059 882.835 369.987C881.443 373.132 880.275 376.129 878.253 378.914L876.597 377.403C877.712 374.16 878.088 372.777 876.844 370.042C873.278 369.05 873.458 369.635 869.461 370.688C868.197 369.957 865.776 368.933 864.362 368.279L864.235 366.572C866.36 362.345 864.14 354.853 863.207 349.794C848.649 342.932 837.798 345.742 822.756 342.079L822.772 341.427C827.745 340.886 854.485 344.092 864.335 344.181C866.583 342.312 869.398 338.636 871.343 336.258L872.343 335.189C871.425 333.921 870.513 333.087 869.401 331.999Z"/><path fill="#767571" fill-opacity="0.54901963" d="M1250.36 308.528L1251.77 311.945C1246.71 312.455 1194.89 337.196 1192.92 340.471C1195.06 341.793 1194.31 341.432 1197.22 341.3L1202.51 342.519C1199.53 343.746 1198.38 343.549 1197.26 345.964C1199.7 348.949 1204.41 349.718 1207.05 351.458L1206.54 353.239C1202.34 351.786 1193.88 347.742 1189.57 349.933C1188.98 350.233 1188.44 350.461 1188.25 351.123C1186.06 358.573 1210.05 400.776 1214.55 411.006L1212.05 412.543C1208.25 403.375 1182.94 353.907 1182.99 351.636C1184.46 350.927 1185.61 349.951 1186.9 348.954C1188.48 345.83 1187.91 341.192 1187.77 337.569L1189.55 336.763C1209.66 327.716 1230.26 316.625 1250.36 308.528Z"/><path fill="#767571" fill-opacity="0.57647061" d="M1169.08 333.723C1172.84 340.885 1171.52 347.752 1178.13 351.172L1176.06 354.171L1174.38 354.012C1169.08 354.534 1136.91 389.334 1131.76 395.592C1130.79 396.766 1129.9 398.008 1129.11 399.308L1128.06 398.054C1127.57 391.57 1163.44 359.466 1171.19 348.826C1163.19 352.035 1114.03 372.67 1111.08 372.045L1109.98 370.963C1112.73 368.772 1135.46 360.464 1140.01 358.583C1150.53 354.197 1160.92 349.53 1171.18 344.588C1165.39 343.883 1158.32 343.656 1152.38 343.327C1149.79 341.098 1148.55 341.964 1144.23 342.057C1150.64 340.84 1161.32 340.403 1168.1 339.996L1157.6 334.633L1159.2 333.426C1162.02 333.546 1166.4 333.855 1169.08 333.723Z"/><path fill="#767571" fill-opacity="0.57254905" d="M863.525 279.96L865.834 278.057C870.988 286.681 878.429 300.916 880.786 310.498C882.055 315.658 888.415 330.045 889.022 333.168L884.346 334.223L883.757 333.68C881.651 330.849 875.254 325.294 872.307 322.456C862.587 313.094 852.018 304.111 843.719 293.406L845.407 291.53C859.877 304.504 868.227 316.336 884.521 328.482C879.827 315.054 870.411 291.92 863.525 279.96Z"/><path fill="#767571" fill-opacity="0.42352942" d="M1231.64 284.646L1235.2 288.344C1228.86 293.833 1190.63 331.113 1189.55 336.763L1187.77 337.569C1186.25 336.722 1184.15 334.966 1182.72 333.84L1184.2 332.016L1185.81 332.275L1186.06 332.041C1196.35 327.526 1223.66 294.179 1231.64 284.646Z"/><path fill="#4E4D4A" fill-opacity="0.32549021" d="M1206.31 270.206L1209.93 271.693C1204.1 283.819 1195.72 313.122 1190.38 321.74C1189.69 318.951 1190.36 315.839 1190.75 312.947C1190.51 307.95 1203.87 276.22 1206.31 270.206Z"/><path fill="#6D6C69" fill-opacity="0.7647059" d="M892.437 273.252L894.953 273.109C892.984 279.934 897.3 322.568 898.362 332.002C900.6 323.956 903.881 314.568 905.855 307.073L909.868 304.618C908.221 308.426 905.817 313.186 905.59 317.223L906.798 319.61C905.337 323.632 899.983 329.865 896.833 332.788C894.721 320.032 892.392 288.686 891.636 274.88L892.292 274.644L892.437 273.252Z"/><path fill="#767571" fill-opacity="0.48627451" d="M1130.32 286.836C1131.11 295.257 1147.06 307.705 1153.89 313.363C1155.73 314.886 1157.63 316.337 1159.59 317.713L1161.51 317.125C1164.27 321.234 1166.3 326.658 1168.23 331.28C1160.47 325.009 1134.5 296.699 1126.5 293.782L1121.82 296.145C1124.82 291.681 1126.27 290.443 1130.32 286.836Z"/><path fill="#767571" fill-opacity="0.49411765" d="M1234.95 395.334C1228.53 388.571 1198.3 362.199 1194.81 356.779C1199.6 355.916 1232.86 387.455 1236.94 393.191L1234.95 395.334Z"/><path fill="#6D6C69" fill-opacity="0.76862746" d="M1178.7 266.641L1179.77 266.777C1181.45 268.174 1181.58 267.946 1181.62 270.593C1181.84 282.089 1181.74 294.359 1181.58 305.867C1181.49 312.516 1182.51 326.598 1181.96 332.23C1179.21 329.667 1176.99 323.105 1176.15 319.408C1176.62 319.321 1177.79 318.706 1178.29 318.46C1180.49 310.698 1178.46 277.82 1178.7 266.641Z"/><path fill="#110F0E" fill-opacity="0.93333334" d="M897.597 386.318C902.319 386.721 901.582 386.604 905.091 382.926L906.726 383.331C908.586 386.931 908.443 388.464 913.092 388.59C916.937 388.693 921.061 388.492 924.877 388.13L927.947 388.132L943.611 389.781L939.749 390.808L940.061 392.072L931.82 392.311L927.235 392.218C914.104 390.771 903.545 390.328 890.48 390.06C895.313 388.722 894.236 389.642 897.597 386.318Z"/><path fill="#767571" fill-opacity="0.48627451" d="M911.392 331.968C919.272 330.441 948.301 307.842 960.109 306.808C953.124 313.028 924.42 328.776 913.763 335.938C913.358 334.925 912.043 332.988 911.392 331.968Z"/><path fill="#767571" fill-opacity="0.67450982" d="M1174.38 354.012L1176.06 354.171C1174.02 364.272 1158.83 406.813 1152.78 414.201L1151.43 413.86C1151.96 410.944 1158.95 394.844 1160.45 391.231C1165.61 379.025 1170.26 366.607 1174.38 354.012Z"/><path fill="#767571" fill-opacity="0.50588238" d="M829.725 312.149C843.624 320.867 854.078 326.049 869.401 331.999C870.513 333.087 871.425 333.921 872.343 335.189L871.343 336.258C863.084 333.94 836.91 320.574 827.787 316.101L829.725 312.149Z"/><path fill="#6D6C69" fill-opacity="0.62352943" d="M863.207 349.794C864.14 354.853 866.36 362.345 864.235 366.572C863.177 364.069 862.368 362.498 861.082 360.147C851.686 361.413 838.491 369.427 827.675 371.386C832.907 363.238 857.171 364.667 863.207 349.794Z"/><path fill="#110F0E" fill-opacity="0.81960785" d="M984.287 382.69C987.497 385.324 997.905 393.216 1000.16 395.473C992.314 395.098 984.792 395.071 976.935 395.051C979.578 389.689 980.645 387.602 984.287 382.69Z"/><path fill="#767571" fill-opacity="0.49019608" d="M904.018 358.163C909.745 356.998 917.378 359.567 923.423 360.384C921.21 365.429 919.726 366.396 915.389 369.829L913.643 370.104L912.927 372.31C910.155 367.473 907.182 362.753 904.018 358.163Z"/><path fill="#767571" fill-opacity="0.55686277" d="M864.362 368.279C865.776 368.933 868.197 369.957 869.461 370.688C854.867 379.22 848.176 388.911 839.049 394.901C838.414 394.25 836.619 393.298 835.741 392.782C841.359 386.585 854.631 379.371 864.362 368.279Z"/><path fill="#4E4D4A" fill-opacity="0.88627452" d="M1180.67 351.631L1181.87 351.648C1181.17 367.512 1185.47 407.105 1182.84 418.086C1181 408.239 1179.99 362.324 1180.67 351.631Z"/><path fill="#6D6C69" fill-opacity="0.78039217" d="M1152.38 343.327C1144.47 343.853 1110.67 346.984 1106.48 342.084L1107.03 340.906C1116.89 342.794 1133.66 342.195 1144.23 342.057C1148.55 341.964 1149.79 341.098 1152.38 343.327Z"/><path fill="#767571" fill-opacity="0.47843137" d="M1112.97 309.577C1117.17 315.744 1133.05 321.029 1137.84 324.67L1134.86 326.093C1130.06 324.389 1115.14 316.895 1110.74 314.357L1112.97 309.577Z"/><path fill="#767571" fill-opacity="0.50196081" d="M920.686 275.199C919.583 284.876 915.388 296.693 909.868 304.618L905.855 307.073C909.965 296.711 915.257 284.874 920.686 275.199Z"/><path fill="#6D6C69" fill-opacity="0.72941178" d="M1207.05 351.458C1212.92 353.674 1247.68 365.225 1249.77 367.442L1249.38 368.709L1248.71 366.474L1249.87 368.667C1248.66 369.043 1211.09 354.791 1206.54 353.239L1207.05 351.458Z"/><path fill="#6D6C69" fill-opacity="0.60000002" d="M885.093 389.855L889.615 390.458L890.704 391.965C889.645 397.409 887.465 418.541 885.352 420.641L882.751 420.958C888.112 413.808 886.114 398.531 885.093 389.855Z"/><path fill="#767571" fill-opacity="0.41568628" d="M912.927 372.31L913.643 370.104L915.389 369.829C917.391 375.968 923.723 383.224 927.947 388.132L924.877 388.13C922.18 385.562 920.879 383.79 918.478 381.221C916.704 379.322 913.173 380.155 911.486 377.313L913.536 374.908L912.927 372.31Z"/><path fill="#6D6C69" fill-opacity="0.84705883" d="M1197.22 341.3C1208.69 339.182 1225.88 338.36 1237.6 338.283L1237.58 339.638C1225.99 341.02 1214.16 341.21 1202.51 342.519L1197.22 341.3Z"/><path fill="#767571" fill-opacity="0.50980395" d="M927.235 392.218L931.82 392.311L938.795 406.972L937.193 408.515C935.143 406.24 929.13 395.477 927.235 392.218Z"/><path fill="#767571" fill-opacity="0.59607846" d="M865.568 399.178L867.383 400.371L861.016 413.476L857.061 411.348C859.648 407.135 862.646 403.169 865.568 399.178Z"/><path fill="#6D6C69" fill-opacity="0.83529413" d="M876.597 377.403L878.253 378.914C875.988 383.325 868.849 396.441 867.383 400.371L865.568 399.178C869.501 393.251 873.871 383.958 876.597 377.403Z"/><path fill="#B4B3B1" fill-opacity="0.21568628" d="M1738.01 429.29C1747.85 429.098 1753.66 428.906 1763.52 430.389C1762.17 431.581 1749.23 431.191 1746.88 431.087L1738.01 429.29Z"/><path fill="#6D6C69" fill-opacity="0.74509805" d="M1184.2 332.016C1186.22 324.943 1188.08 319.818 1190.75 312.947C1190.36 315.839 1189.69 318.951 1190.38 321.74C1188.94 326.306 1188.37 327.867 1186.06 332.041L1185.81 332.275L1184.2 332.016Z"/><path fill="#6D6C69" fill-opacity="0.69803923" d="M1137.84 324.67C1145.39 328.087 1151.42 330.594 1159.2 333.426L1157.6 334.633C1150.09 331.606 1142.51 328.759 1134.86 326.093L1137.84 324.67Z"/><path fill="#EAE3E1" fill-opacity="0.047058824" d="M1734.16 428.991L1738.01 429.29L1746.88 431.087C1736.51 431.2 1726.21 431.398 1715.85 430.969C1717.83 429.661 1728.68 430.701 1734.16 428.991Z"/><path fill="#6D6C69" fill-opacity="0.59607846" d="M1258.19 334.529C1258.36 336.39 1258.62 338.594 1258.6 340.432L1254.85 339.352L1254.91 339.038C1253.77 337.889 1241.36 338.171 1238.47 338.04C1243.68 336.562 1252.44 338.404 1257.65 336.658L1258.19 334.529Z"/><path fill="#6D6C69" fill-opacity="0.93725491" d="M1238.47 338.04C1241.36 338.171 1253.77 337.889 1254.91 339.038L1254.85 339.352C1249.19 339.28 1243.26 339.509 1237.58 339.638L1237.6 338.283L1238.47 338.04Z"/></svg>