<?xml version="1.0" encoding="utf-8"?>
<!-- Generator: Adobe Illustrator 25.2.3, SVG Export Plug-In . SVG Version: 6.00 Build 0)  -->
<svg fill="hsl(var(--foreground))" version="1.1" id="Laag_1" xmlns="http://www.w3.org/2000/svg" xmlns:xlink="http://www.w3.org/1999/xlink" x="0px" y="0px"
	 viewBox="0 0 2500 612" style="enable-background:new 0 0 2500 612;" xml:space="preserve">
<style type="text/css">
	.st0{fill:#0F323D;}
	.st1{fill:#73716F;fill-opacity:0.6667;}
	.st2{fill:#767571;fill-opacity:0.5529;}
	.st3{fill:#73716F;fill-opacity:0.6471;}
	.st4{fill:#767571;fill-opacity:0.5961;}
	.st5{fill:#767571;fill-opacity:0.5647;}
	.st6{fill:#767571;fill-opacity:0.4392;}
	.st7{fill:#575654;fill-opacity:0.3804;}
	.st8{fill:#575654;fill-opacity:0.698;}
	.st9{fill:#767571;fill-opacity:0.4941;}
	.st10{fill:#767571;fill-opacity:0.4863;}
	.st11{fill:#767571;fill-opacity:0.5059;}
	.st12{fill:#767571;fill-opacity:0.4902;}
	.st13{fill:#767571;fill-opacity:0.5098;}
	.st14{fill:#73716F;fill-opacity:0.7569;}
	.st15{fill:#0F323D;fill-opacity:0.9333;}
	.st16{fill:#767571;fill-opacity:0.5451;}
	.st17{fill:#73716F;fill-opacity:0.8;}
	.st18{fill:#575654;fill-opacity:0.8941;}
	.st19{fill:#73716F;fill-opacity:0.6157;}
	.st20{fill:#767571;fill-opacity:0.6431;}
	.st21{fill:#767571;fill-opacity:0.4157;}
	.st22{fill:#767571;fill-opacity:0.5176;}
	.st23{fill:#767571;fill-opacity:0.7412;}
	.st24{fill:#73716F;fill-opacity:0.8235;}
	.st25{fill:#767571;fill-opacity:0.9333;}
	.st26{fill:#767571;fill-opacity:0.5882;}
	.st27{fill:#575654;fill-opacity:0.7529;}
	.st28{fill:#0F323D;fill-opacity:0.8157;}
</style>
<path class="st0" d="M396.8,356.7c26-1.7,51.7,11.9,76.3,19.4c15.1,4.6,35,7.3,48.7,14c10,4.9,15.8,25.1,30,27
	c12.1-3.5,6.1-17.6,6.6-27.6c0.5-10.1,12.9-19.2,19.9-26.3c40.8,7.3,79.2,4.8,85.7,61.4c2.5,21.7-14.8,15.9-21.9,23.9l-0.4,0.5
	c-4.6,5.2-4.5,14-9.1,22c-10.3,6.3-23.3,15.5-34.1,20.8c-7.8,3.9-14.8-16.9-26.1-17.3c-13.9-0.5-26.8,21.8-36.8,31.1
	c-6.4,5.8-10.2,9.7-16.9,15.2c44.7,14.4,72.1,9,116.2,1.6c32.2-5.4,67.7,5.1,99.8,9.6c15.9,2.2,31.3,1.7,47.5,4.1
	c9.7,1.4,35.7-4.9,44.2,1.6l-0.8,1.9c-8.7,5.3-50.2,14-61.3,16.1c-57.5,10.6-117.4,14.3-175.6,7.5c-52.2-6.1-103.1-20.1-155.4-26.2
	c-22-2.6-44.5-2-66.8-2.2c-4.9,1.2-16.9,1.6-22.6,2c-14.3,1.1-28.6,2.4-42.9,4.1c-96.9,11.4-184.2,27-280.5-0.6
	c15.6-1.4,33.9,0.9,48.9-1.7c65.3-11.4,121.2-30.9,188.8-21.1c20.9-13,36.4-29.9,57.6-41.5c14-7.7,37-9,49-13.7
	c26.1-10.3,68.3-31.6,91.9-46.9c-16-8.3-31.6-16.7-46.2-27.2c-29.4,18.6-48.7,13.7-78.3,29.8c-2.5,10.6-8.4,37.8-19.9,41.8l-1.7-2.2
	c-0.6-6.9,2.5-15.2,4.9-21.7c-11.8,3.3-36,18.8-42.5,17.8l-0.2-2.3c2.7-5.9,9.4-11.8,14.1-16.4c-5.4,2.2-20.3,10.2-24.2,7.4
	c0.8-3,6.6-8.3,9.3-12.5c-2.8-3.2-5,0.8-10.3-1.6c4.9-15,42.9-22.5,56.6-29.8C345.4,384.2,367,365.7,396.8,356.7z"/>
<path class="st0" d="M380.8,555.1c6.3-0.7,29,0.9,36.2,1.4c61.3,3.8,119.3,19.7,179.7,27.8c26.6,3.6,56.5,0.5,83.9,2.9
	c-4.9,1.6-21.1,4.2-27.2,5.5c-60.6,12.7-119.1,3.2-179.8-4.7c-45.2-6.5-90.9-8.4-136.4-5.7c-52.2,2.9-114.3,13-164.6,3.3
	c6.5-0.3,14.4-1.4,20.9-2.5C256.9,572.5,316.2,557.8,380.8,555.1z"/>
<path class="st0" d="M1321.1,157.2c10-1.8,24.8-3.3,25.5-15.6c-3.9-9-10.3-13.6-6.2-23.6c2.7-6.6,9.5-14.9,16.1-17.7
	c8.6-3.7,30.3,1.1,38.5,4.9c26.9,12.4,40.9,29.9,29.4,58.6c-4.3,2.1-10.3,4.7-14.3,7c1.9,19.3,0,15.4-14.9,26.4
	c-2,1.5-7.7,9.2-9.6,11.7l-14.1-10.2l-4,14.9c-3-2.8-8-8-11.6-9.4c-9.3,9,5.6,61.2,9,74.8c13.9,10.2,30.8,22.5,43,34.4
	c18.8-8.2,30.7-10,51.7-9.6c15.7-23.6,25.7-13.7,20.1,11c-10.3,11-10.7,16-7.2,31c1.9,8.2-2.1,19.7-10.3,20.8
	c-12.1,1.7-33.7,15.7-43.9,10l-1.1-2.3c3.4-6.6,11.4-4.1,13-11.8c-3.1-7.4-21.9-15.7-29.7-19.5c5.1,15,13.2,37.3,21.7,50.8
	c34.6-9.3,65.8-9.3,97.7,9.1c26.5,15.5,45.8,40.9,53.6,70.6c15.2,57-11.9,107.1-58.9,138.6h-116.2c-45.3-29.3-55.2-56.5-59.7-107.5
	c-15.2,2-37.4,10.8-51.5,16.8c4.5,36.1-16.6,59.1-53,49.3c-1.3-4-12.4-11.6-16.7-15.1c-4.5,6-5.9,7.9-9,14.9
	c-7.1,17.3-24.6,30.1-39,41.6h-126.9c-37.8-31.6-56.2-66.9-49.1-117.2c7.7-54.7,48.7-94.4,103.9-98.7c25.3-1.9,49.5,5.6,72.6,16.5
	c6.9-9.3,17.2-24.2,24.7-32.4c-7.4-23.4-13.9-48.5-27.2-69.3c-9.1-14.3-21.9-13-36.8-12.7c-5.7-6-7.6-8-11.8-15.2
	c3-0.9,9.1-2.5,11.7-3.9c-1.5-33,5.8-45.7,24.6-72.4c2.7-3.9,7-15.1,10.1-18.1c26.3-25.1,66.2-39.5,102-41.1
	C1288.2,146.6,1302.8,150,1321.1,157.2z M1523.9,570.7l2.5-2.5c27.4-31.8,31.4-60.3,18.1-99.5l-1.7-3.9c-6.2-11.6-9.5-15.7-18.7-25
	l-4.2-4.4c-9.3-8.4-15.5-10.8-26.8-16l-4.1-1.5c-10.9-2.6-19-3.5-30.1-4.7l-6.1,0.4c-7.9,0.7-16.3,0.7-22.5,5.7
	c-1.8,5.2,18.2,48.3,21.5,58.5c1.2,4.9,3.8,12.5,7.2,16.2l1,1.4c1.9,1.8,3.7,3.6,6.1,4.6c0.2,4.5,0.9,10.8-1.1,14.6l-2.1,2l-4.3,0.7
	l-1.7-0.1l-2.2-0.5c-0.2-0.1-0.4-0.2-0.7-0.3c-6.6-3.1-7.5-13.1-10.4-20.9l-2.2-4c-1.5-4.9-4.6-12.1-7.4-16.3
	c-7.3-12.6-17.2-34.5-24.6-48.6c-5.1,5-9,8.2-14.5,12.7c-4.1,3.5-5.1,4.5-8.2,8.9c-4,6.2-7.5,11.6-11.8,17.5l-2.7,6.1
	c-5.4,13.1-6.1,19.7-7.7,33.8l0.8,5.9c1.2,10,2.5,19.5,5.8,29.1l1.3,3.1c3.9,8.6,6.9,14.3,12.9,21.7c1.2,1.6,7.5,8.6,8.1,9.6
	l1.4,0.6c7.2,5.6,19.2,14.4,27.5,17.9c13.1,4.7,22.4,7.1,36.7,6.3l1.1-0.3c9.4,1.7,26.8-4.8,36.9-7.6l1.7-1.8
	C1509,584.9,1515.6,578.5,1523.9,570.7z M1296.5,458.6c10.3-10.8,87.8-90.4,88.8-98.8c-5.4-4.9-11.5-3-18.5-2.3
	c-14.2,1-32.7,1.8-46.4,4.2c-8.6,25.6-43.6,76.9-35.1,97.1c3.6,3.2,1.9,2.4,6.9,3.1C1294,460.7,1295.3,460.2,1296.5,458.6z
	 M1335.4,321.4c-2.8,8.6-5.7,17.2-8.7,25.7c10.7-1.2,47-1.6,48.7-13.8c-3.4-10.1-23.7-20.6-33.1-25.5c-4.5-9.7-29.6-71.5-35.7-73.3
	c-6.5,2.8-13.4,6-20.1,8.5c-9.4-2.1-13.7-3.8-22.7-7.5c-11.4,3.8-17.1,6-27.1,13.2C1259.3,260.9,1333.3,296.5,1335.4,321.4z
	 M1035.5,567.5c1.3,0.8,3.4,1.9,4.4,3c1.7,7,15.7,15.6,21.8,19.9l4.9,2.5c9.5,3.7,19.4,8,29.4,9.7l2.1-0.1l0.3,0.1
	c19.5,5.4,45.1-6.4,61.5-15.7l1.7-2c3.9-2.6,14-10.2,15.4-14.4l-1.1-2c-4.3-2.2-12.1-1.7-17.2-1.7c1.7-1.3,4.5-2.2,6.6-2.9
	c13.3,1.3,12.9,4.1,18.4-7.5l3.7-0.5c2.4-2.4,6.7-16.4,8.1-20.4c-18.9-4.1-34.2-5.8-53.2-7.5c-7.7-0.6-14.9-4.1-23.1-2.7
	c-0.7,1.1-1.6,2.3-2.6,3.8c0.6,8.2-6,24.2-5.3,30.6c-0.8,1.2-2.5,3.6-3,4.8l-5,0.5l-7.2-0.8c-3.3-13.1,5.2-12.7,3.4-21
	c-2.7-3.3-1.4-2.3-6-3.4c-1.3-0.6-3.4-2.1-4.6-2.9c-3.1-8.6,5.1-8.9-2.7-20.7c-0.8-6.2,4.5-13.5,7.7-19c1.7-0.9,5.4-1.9,7.4-2.5
	l7.5,0.2c4.8-1,12.3-13.1,14.7-17.2c7.3-12.8,30.3-37.3,30.3-45.1c-3.5-5.6-13.3-6.4-19.4-7.8c-22.1-5.1-40.1-3.7-61.6,2.9l-3.3,2
	c-9.8,4.4-13.3,7.4-21.8,14l-2.2,2.6c-6.9,7-11.7,14.5-17.2,22.7l-2.3,4.9C1015.9,501.2,1012.7,545.4,1035.5,567.5z M1310.7,477.3
	l14.7,7l15.1,5.9c8.9-44.5,21.7-62.1,59.2-87.9c2.7-1.9-3-11.9-4.9-13.8c-13,10.7-30.8,31.6-42.4,44.7
	C1338.4,448.9,1325.5,462.2,1310.7,477.3z M1290.4,333.2c-10.2-3.8-17.3-6.6-28.2-8.1c4.4,10,8.5,18.6,14.4,27.7l5.9-9.1
	L1290.4,333.2z M1229.2,497.9c0-9.3-0.7-25-9.1-30.8C1218.7,479,1222,488.6,1229.2,497.9z M1226.8,371.2c-5.7,2.6-10.7,4.7-15.9,8.2
	c1.2,6.9,2.4,16,6.7,21.5c5.3-6.4,14.8-16.6,15.9-24.7C1232.4,372.7,1231.3,370.8,1226.8,371.2z M1240.8,465l1.9,0.9
	c6.8-5.3,22.8-49.7,18.8-57.1c-8.9,11.7-19.3,25.9-26.3,38.7L1240.8,465z M1130.7,498.5c5.3,7.4,16.9,12.8,25.7,8.4
	c8.5-11.7,30.1-34,31.3-44.3c-7.4-7.8-14.9-15.4-22.7-22.9c-7.9,10.5-33.6,43.3-36.7,53.4C1129.4,494.8,1130.6,496.5,1130.7,498.5z
	 M1197,394.2c-7,8.7-11.6,14.8-17.7,24.1l16.2,13.4c4,2,2.4,1.9,6.2,0.7c3.4-3.2,4.9-7.8,6.7-12.1
	C1206,412.9,1202.6,399.4,1197,394.2z"/>
<path class="st1" d="M1120.9,565c8,1.4,10,25.2,11.8,33.2l-1.6,0.4c-0.4-0.3-1-0.6-1.5-0.9C1127.5,586.2,1125.3,575.5,1120.9,565z"
	/>
<path class="st2" d="M1542.8,464.7l1.7,3.9c-5,0.5-67.5,30.2-72.3,33.9l-0.2,1.8l3.8,0.9l0.4,3.5c4.4,6.4,31.9,15,39.7,17.8
	l-2.3,1.7c-9.7-3.7-40.9-19.2-47.1-8.5c-0.3,6.5,26.5,56.2,32.2,70.1l-1.7,1.8c-1-1.1-35.6-70.2-36-72.5l2-2.7l2.1-2
	c2-3.8,1.3-10.1,1.1-14.6l1.6-0.8C1492.6,489.7,1516.8,474.4,1542.8,464.7z"/>
<path class="st3" d="M1408.2,485.7c10.9,4.7,23.6,11.5,35.4,9.6c2.8,7.8,3.8,17.8,10.4,20.9c0.2,0.1,0.4,0.2,0.7,0.3
	c-0.7,1-2.6,3.7-3,4.6l-1.9-0.2l-1.5-0.9c-2.3,1.7-3.9,3-6.1,5c0.3-3.8,2.6-1.9,1.7-6.7l-0.5-2.2c-7-0.7-60.1,23.8-71.1,27.5
	l-1.3-3.1c25.7-9.5,51-20.3,75.8-32.1c-19.5-1.3-37.4-0.4-56.8,0.3c-8.1,0.3-15.9-0.9-24,0.3l-0.8,2.5l-0.8-5.9
	c2.5-1.4,4.2-1.3,6.9-1.1c24.2,1.9,46.4,0.5,70.6-1.5c-11.2-6-23-10.9-35.1-14.8L1408.2,485.7z"/>
<path class="st4" d="M1076.7,493.2c5.4,1.4,11,3.1,16.6,3.2l0.4,0.7c-3.3,5.5-8.6,12.8-7.7,19c7.8,11.8-0.4,12.1,2.7,20.7
	c1.3,0.9,3.3,2.4,4.6,2.9c-0.7,1.4-3.1,7-3.8,8l-2.8-1.5c0.6-4.4,0.9-2.9-0.9-6.5c-3-1.4-6-0.2-9.2,0.7c-2.1-0.9-3.1-2-4.8-3.6
	c1.2-2.5-0.4-21.6-1.9-24.5l-1.1,1.3c-3.1-0.1-7.6-2.1-10.7-3.3c2.8-1.2,8-1.6,11.2-2l6.8-4.2l1.1,0.2l4.2-7.2
	C1079.4,495.7,1078.5,494.9,1076.7,493.2z"/>
<path class="st5" d="M1069.4,429.5l3.3-2c10.8,18.3,17.5,36.6,23.7,56.9c1.2,3.9,2.4,6.8,4.7,10.1c-2,0.6-5.7,1.6-7.4,2.5l-0.4-0.7
	c0.1-1.2-0.3-2.9-1.2-3.7c-15.5-15.6-32.8-29.5-46.8-46.6l2.2-2.6c5.7,7.5,40.6,40.1,47.8,45.4
	C1088.5,471.3,1079.1,445.2,1069.4,429.5z"/>
<path class="st6" d="M1519.9,435.3l4.2,4.4c-9.3,8.4-51.6,50.1-56.4,59.3l-1.6,0.8c-2.4-1-4.1-2.8-6.1-4.6l1.8-2l2,0.4l0.3-0.3
	C1478.2,486,1509.1,448.1,1519.9,435.3z"/>
<path class="st7" d="M1489.1,417.8l4.1,1.5c-7.5,18.3-15.6,44.7-23.1,61.1l-3.1-4.4C1474.8,457.5,1479.9,438.4,1489.1,417.8z"/>
<path class="st8" d="M1452.8,413.5l6.1-0.4c-0.1,8.7,0.8,78.2,0.1,80.8c-3.4-3.7-6-11.3-7.2-16.2c1.2-0.1,1.8-0.7,2.8-1.5
	c2.5-11.1,0.6-48.4-0.2-61.2L1452.8,413.5z"/>
<path class="st9" d="M1523.9,570.7c-6.1-6.2-47.7-43.3-48.6-47.1c8,1.7,45.1,36.3,51.1,44.6L1523.9,570.7z"/>
<path class="st10" d="M1386.6,448c3.1-4.4,4.1-5.4,8.2-8.9c1.5,6.5,32.6,36.2,37.6,36.6l1.6-0.7c2.8,4.3,5.9,11.4,7.4,16.3
	c-8.1-6.5-38.7-40.4-51.4-44.4C1390.1,446.9,1387,447.9,1386.6,448z"/>
<path class="st11" d="M1393.3,574.9c-1.2-7.4,43-51.1,50.6-56.6c0.9,4.8-1.4,2.9-1.7,6.7c-9.8,10.7-41.8,40-47.4,50.5L1393.3,574.9z
	"/>
<path class="st12" d="M1128.3,493c9.8-1.6,44-28.8,59.4-30.5c-15.2,12.8-39.3,22.4-57,35.9C1130.6,496.5,1129.4,494.8,1128.3,493z"
	/>
<path class="st13" d="M1025.9,473.7l2.3-4.9c15.2,10,31.5,18.2,48.6,24.4c1.8,1.7,2.7,2.5,4.7,3.9l-4.2,7.2l-1.1-0.2l1.2-4.7
	C1076.2,497.2,1031.1,476.3,1025.9,473.7z"/>
<path class="st14" d="M1108.6,494.8c3.5-7.4-6.3-68.7-3.9-72c4.8,5.9,3.4,49.9,7.9,63l1.3,0.3l1.3-3.4c1.3-1.2,3.7-5,4.9-6.6
	l3.3,1.5C1120.9,481.7,1113.3,493.8,1108.6,494.8z"/>
<path class="st15" d="M1111.3,559.6l4.3,0.4c1.7-1.5,3.3-2.8,5.1-4.3l2,0.5c0.6,1.3,2,5,2.9,5.4c4.2,1.6,14.3,0.9,18.6,0.1l2.8,0.4
	c6.1,0.3,12.2,0.9,18.2,1.7c-2.1,0.7-4.9,1.6-6.6,2.9l-3.5,0.3l-7.4-0.2c-14.1-1.4-25.2-2.4-39.5-2.5
	C1108.7,563.2,1110.5,560.8,1111.3,559.6z"/>
<path class="st9" d="M1119.2,525.2c8.2-1.4,15.4,2.1,23.1,2.7c-2,6.5-4.2,8-9.9,11.8c-0.6,0-2.6,0-3.1,0.1
	C1127.3,538.7,1120.9,527.8,1119.2,525.2z"/>
<path class="st2" d="M1139.5,423.5c-3.1,20.9-11.5,32.6-19.5,52.6c-1.1,1.6-3.6,5.4-4.9,6.6C1118.5,465.8,1131.5,439.3,1139.5,423.5
	z"/>
<path class="st16" d="M1070.9,536.5l1,0.2c1.7,1.6,2.6,2.7,4.8,3.6c-13,9.1-25.3,19.2-36.8,30.1c-1-1.1-3-2.2-4.4-3
	C1044.5,560.6,1065.6,545.7,1070.9,536.5z"/>
<path class="st17" d="M1475.8,505.3c9.9-2.1,68.7-7.7,75-4.1c-18.8,3.4-59.1,0.9-74.6,7.6L1475.8,505.3z"/>
<path class="st18" d="M1456.9,517l1.7,0.1c0.4,25.6,3.4,56.5,3,81.1l-1.5,1l-1.1,0.3c0.9-15.8-1.8-39.4-1.5-56
	C1457.5,540,1457.3,519.3,1456.9,517z"/>
<path class="st19" d="M1067.8,527.3c-19,3-27.2,13.3-42.8,14.4l-0.5-0.9c11.6-6.8,35.8-12.4,43.1-20.8l0.3-0.3L1067.8,527.3z"/>
<path class="st10" d="M1372.2,471.7l2.7-6.1c3.3,7.1,26.5,15.7,33.4,20.2l-1.3,2.4C1398.4,485.1,1379.7,476.4,1372.2,471.7z"/>
<path class="st20" d="M1422.3,593.3c0.9-6.4,12.8-33.1,16.1-40.4l2.7,1.2C1437.7,562.9,1429.2,589.2,1422.3,593.3z"/>
<path class="st19" d="M1096,564.1l7.2,0.8c-3.4,14.3-3.4,23.2-5.2,37.5l-2.1,0.1l-1.7-0.9c-1.4-2.5,1.9-4.3,2.6-8.6
	C1098.3,583.8,1096.9,573.4,1096,564.1z"/>
<path class="st21" d="M1129.3,539.8c0.5-0.1,2.5-0.1,3.1-0.1c2.5,4,14,20.2,14.7,22.5l-2.8-0.4c-4.8-5.1-7.2-9.4-14.1-11.2
	C1127.7,549.9,1130.6,545.9,1129.3,539.8z"/>
<path class="st22" d="M1515.8,526.5c5.5,1.7,25.2,6.6,27.7,10.1l0.3,1.9c-4.8,1.4-23.9-7.9-30.3-10.3L1515.8,526.5z"/>
<path class="st17" d="M1058.1,510.3c-3.6,0.1-36.4-3.7-38.6-5.3c4.7-0.9,38.4,3.5,49.8,3.3C1066.1,508.7,1060.9,509.1,1058.1,510.3z
	"/>
<path class="st23" d="M1449.8,521l1.9,0.2c-2.7,11.3-8.6,24.2-10.6,32.9l-2.7-1.2C1442.1,542.2,1445.9,531.6,1449.8,521z"/>
<path class="st13" d="M1147.7,566.9l7.4,0.2l-1,1.8l7.3,15.9l-1.7,2C1156.9,584,1149.8,570.9,1147.7,566.9z"/>
<path class="st24" d="M1086.7,546.2l2.8,1.5c-4.3,8-13.1,23.5-16.2,31.4l-3.3-0.4C1076.7,568.9,1082.2,557.1,1086.7,546.2z"/>
<path class="st25" d="M1068.8,513.6l1.1-1.3c1.5,2.8,3.1,22,1.9,24.5l-1-0.2c-1-2-2.4-6.8-3.1-9.2l0.1-7.6L1068.8,513.6z"/>
<path class="st26" d="M1070,578.7l3.3,0.4l-6.8,13.7l-4.9-2.5C1063.2,587.6,1067.9,581.5,1070,578.7z"/>
<path class="st27" d="M1461.8,493.3c1.9-5.9,3.7-11.2,5.1-17.3l3.1,4.4l-5.9,13l-0.3,0.3L1461.8,493.3z"/>
<path class="st0" d="M2182.7,118c24.1-36.7,89.4-14.2,68.1,31.7c1.5,3.9,3.2,7.7,4.2,11.7c-19.5,15.1-7.4,33.1-36.1,22.5
	c-3.3,1.8-6.1,2.8-7.3,6.3c-1.7,11.5,10,18.3,5.7,40.9c6.8,15.7,7.7,20.8,9.8,38c19.2-7.9,37.1-14.5,50.8-31.1
	c-0.7-18-2.9-24.5,17.9-24.5c4.1,0,6.8,0,10.2,2.5c3,3.7,5.3,12.6,6.8,17.5c-9.1,10.9-15.7,13.4-28.9,23.6
	c-14.1,10.9-48.7,62.2-71.6,46.1c-5.9-4.2-16.7-28.6-21.4-36.6c-25.9,36.2-40.5,42.5-52.1,86c10.3,9.8,22.7,12.5,32.3,20.5
	c19.6,16.5,45.7,41.3,55.8,64.8c1.9,4.5-12,31.4-14.2,36.8c-4.5,11.6-8.1,24.5-13.4,35.8c-5.1,11.5-33.6,51.2-26.8,63.4
	c5.6,0.3,3.6-3.5,7.3-1c0.7,6,0.4,7.4,6,11.8c5.9,4.6,13.5,9.2,20,13.1c7.8-0.5,15.2-1.5,22.1,2.6c2,3.4,1.7,1.9,1.3,6.1
	c-1.2,1.7-2.6,4-4,5.5h-89.8c-21.6-8.2-0.2-33.5,6.3-45.8c11.6-21.1,13.6-46.3,16.9-69.9c2.6-18.2,13.2-28.5,21-44.5
	c-23.2-22.8-12.8-9.9-41.1-19.4c-5.2-1.7-22.7-12.8-28.5-16.4c-7.8,13-18.6,31.9-29.2,42.4c-16.7,16.5-29.8,35.9-45.8,52.4
	c-13.8,4.4-22.2,2-34.1,5.3c-11.5,3.2-26.7,10.9-38.5,15.2c-24.5,9-51.4,14-73.1,29c-1.1,4.3-3,13.6-5.4,16.7l-2.7-2
	c-8.8,2.9-12.7,17-15.3,25.1c-1.1,3.5,0.4,8.2,1.4,11.7h-21.6c-10-24.3-7.8-33-6.9-58.4c1.1-29.7,10.8-29.3,38.4-19.8
	c19.4-7.9,31-14.5,48.5-26.2c9.8-6.5,23-15.7,33.3-20.6c13-5.7,29.3-2.7,41.7-9.9c6-3.5,12.3-12.8,14.4-19.4
	c8.7-27.2,17.3-47,33.3-71.2c-8.9-20.2-9.2-25.6-3.5-47.6c-6.1-1.7-5.8-0.6-9.6-4.6c-3.7-11.9,4.1-25.9,12.4-34.2
	c-1.2-20-8.7-79,3.4-96.7c6-8.8,40.3-14.2,51.2-17.6c19.1-5.9,37.2-15,57.3-12.7C2194.6,153.6,2180.4,152,2182.7,118z M2076.8,224.9
	c-2.6,13.4-13.7,69-9.7,78.8l2,0.8c1.2-1.1,2.7-2.2,3.6-3.6c16-22.1,20.2-43.1,28.3-68.7c1-3.1,2.1-7.3,1.3-10.5
	c-3.8-1.1-5.2-0.8-9.1-0.3C2088.1,222.4,2081.5,223.5,2076.8,224.9z"/>
<path class="st28" d="M1217.4,555.5c4.3,3.6,15.4,11.2,16.7,15.1l-25.7-0.2C1211.6,563.4,1213,561.5,1217.4,555.5z"/>
</svg>

